<svg data-v-423bf9ae="" xmlns="http://www.w3.org/2000/svg" viewBox="0 0 204.33333079020184 184" class="iconAbove"><!----><!----><!----><g data-v-423bf9ae="" id="e6f4da7f-51d5-4c5d-ac38-32a34133103c" fill="white" transform="matrix(6.666666666666667,0,0,6.666666666666667,-5.600002566973373,96.80720408757527)"><path d="M5.52 4.02L5.52 4.02L6.69 4.02L6.69 4.02Q7 4.02 7 4.30L7 4.30L7 10.74L7 10.74Q7 11.83 6.39 12.42L6.39 12.42L6.39 12.42Q5.78 13.02 4.69 13.02L4.69 13.02L3.15 13.02L3.15 13.02Q2.04 13.02 1.44 12.43L1.44 12.43L1.44 12.43Q0.84 11.84 0.84 10.74L0.84 10.74L0.84 4.31L0.84 4.31Q0.84 4.02 1.13 4.02L1.13 4.02L2.32 4.02L2.32 4.02Q2.62 4.02 2.62 4.31L2.62 4.31L2.62 10.65L2.62 10.65Q2.62 11.10 2.81 11.29L2.81 11.29L2.81 11.29Q3.00 11.48 3.43 11.48L3.43 11.48L4.40 11.48L4.40 11.48Q4.84 11.48 5.03 11.29L5.03 11.29L5.03 11.29Q5.22 11.10 5.22 10.65L5.22 10.65L5.22 4.31L5.22 4.31Q5.22 4.02 5.52 4.02ZM12.03 13.02L12.03 13.02L10.78 13.02L10.78 13.02Q9.67 13.02 9.07 12.43L9.07 12.43L9.07 12.43Q8.47 11.84 8.47 10.74L8.47 10.74L8.47 8.16L8.47 8.16Q8.47 7.06 9.07 6.47L9.07 6.47L9.07 6.47Q9.67 5.88 10.78 5.88L10.78 5.88L12.03 5.88L12.03 5.88Q13.12 5.88 13.73 6.47L13.73 6.47L13.73 6.47Q14.34 7.07 14.34 8.16L14.34 8.16L14.34 10.74L14.34 10.74Q14.34 11.83 13.73 12.42L13.73 12.42L13.73 12.42Q13.12 13.02 12.03 13.02ZM11.05 11.49L11.05 11.49L11.76 11.49L11.76 11.49Q12.21 11.49 12.40 11.31L12.40 11.31L12.40 11.31Q12.59 11.13 12.59 10.68L12.59 10.68L12.59 8.22L12.59 8.22Q12.59 7.77 12.40 7.59L12.40 7.59L12.40 7.59Q12.21 7.41 11.76 7.41L11.76 7.41L11.05 7.41L11.05 7.41Q10.60 7.41 10.42 7.59L10.42 7.59L10.42 7.59Q10.23 7.77 10.23 8.22L10.23 8.22L10.23 10.68L10.23 10.68Q10.23 11.13 10.42 11.31L10.42 11.31L10.42 11.31Q10.60 11.49 11.05 11.49ZM21.85 4.02L21.85 4.02L23.93 4.02L23.93 4.02Q24.22 4.02 24.22 4.31L24.22 4.31L24.22 12.73L24.22 12.73Q24.22 13.02 23.93 13.02L23.93 13.02L22.78 13.02L22.78 13.02Q22.48 13.02 22.48 12.73L22.48 12.73L22.48 6.09L22.43 6.09L21 10.78L21 10.78Q20.92 11.06 20.65 11.06L20.65 11.06L19.47 11.06L19.47 11.06Q19.21 11.06 19.12 10.78L19.12 10.78L17.67 6.08L17.61 6.08L17.61 12.73L17.61 12.73Q17.61 12.89 17.56 12.96L17.56 12.96L17.56 12.96Q17.50 13.02 17.32 13.02L17.32 13.02L16.17 13.02L16.17 13.02Q15.88 13.02 15.88 12.73L15.88 12.73L15.88 4.31L15.88 4.31Q15.88 4.02 16.17 4.02L16.17 4.02L18.26 4.02L18.26 4.02Q18.45 4.02 18.52 4.21L18.52 4.21L20.01 9.16L20.09 9.16L21.59 4.21L21.59 4.21Q21.63 4.02 21.85 4.02ZM31.16 13.02L31.16 13.02L28.07 13.02L28.07 13.02Q26.96 13.02 26.36 12.43L26.36 12.43L26.36 12.43Q25.76 11.84 25.76 10.74L25.76 10.74L25.76 8.16L25.76 8.16Q25.76 7.06 26.36 6.47L26.36 6.47L26.36 6.47Q26.96 5.88 28.07 5.88L28.07 5.88L29.18 5.88L29.18 5.88Q30.28 5.88 30.88 6.47L30.88 6.47L30.88 6.47Q31.49 7.06 31.49 8.16L31.49 8.16L31.49 9.94L31.49 9.94Q31.49 10.23 31.19 10.23L31.19 10.23L27.68 10.23L27.68 10.23Q27.51 10.23 27.51 10.39L27.51 10.39L27.51 10.70L27.51 10.70Q27.51 11.13 27.70 11.32L27.70 11.32L27.70 11.32Q27.89 11.51 28.34 11.51L28.34 11.51L31.16 11.51L31.16 11.51Q31.46 11.51 31.46 11.82L31.46 11.82L31.46 12.74L31.46 12.74Q31.46 12.89 31.40 12.96L31.40 12.96L31.40 12.96Q31.33 13.02 31.16 13.02ZM27.68 9.04L27.68 9.04L29.58 9.04L29.58 9.04Q29.74 9.04 29.74 8.89L29.74 8.89L29.74 8.22L29.74 8.22Q29.74 7.77 29.55 7.59L29.55 7.59L29.55 7.59Q29.37 7.41 28.92 7.41L28.92 7.41L28.34 7.41L28.34 7.41Q27.89 7.41 27.71 7.59L27.71 7.59L27.71 7.59Q27.52 7.77 27.52 8.22L27.52 8.22L27.52 8.89L27.52 8.89Q27.52 9.04 27.68 9.04Z"></path></g><!----><g data-v-423bf9ae="" id="13d43282-d58e-4de4-a007-a984d819dcdc" transform="matrix(1.1085887485080295,0,0,1.1085887485080295,48.85680953316963,0.691073551720784)" stroke="none" fill="white"><path d="M60.258 27.237c-7.356 0-13.322 4.899-13.322 10.942 0 6.042 5.966 10.941 13.322 10.941 7.357 0 13.321-4.9 13.321-10.941 0-6.043-5.964-10.942-13.321-10.942zm8.36 12.126c-.055 1.604-.438 2.698-.846 3.549l-2.892-.729c.31-.609.897-1.75.897-3.501 0-1.581-.745-2.091-1.46-2.091-.817 0-1.382.851-2.175 2.942-1.075 2.893-2.481 4.035-4.81 4.035-2.276 0-4.222-1.507-4.708-4.302h-2.638V36.86h2.432c.075-1.628.563-3.208 1.1-4.132l2.996.729c-.59 1.021-1.128 2.455-1.128 4.037 0 1.41.59 2.357 1.587 2.357.971 0 1.588-.778 2.227-2.603.925-2.601 2.2-4.375 4.683-4.375 2.278 0 4.042 1.507 4.556 4.108h2.429v2.381h-2.25zM94.99 21.184a5.125 5.125 0 0 0-4.915-3.614 5.11 5.11 0 0 0-1.537.236l-6.971 2.18v10.789l10.046-3.139a5.117 5.117 0 0 0 3.027-2.526 5.117 5.117 0 0 0 .35-3.926zM86.058 36.216h-4.49v10.301h4.49a5.156 5.156 0 0 0 5.151-5.15 5.157 5.157 0 0 0-5.151-5.151zM81.567 50.457v8.079h4.49c2.841 0 5.151-2.311 5.151-5.15s-2.311-5.151-5.151-5.151h-4.49v2.222zM85.934 60.253h-4.366v10.3h4.366a5.156 5.156 0 0 0 5.151-5.149 5.156 5.156 0 0 0-5.151-5.151zM74.096.049H36.051v.004h-.701v32.97l2.389-1.096V2.439h36.357z"></path><path d="M48.379 26.894H46.07v-16.16h10.968v2.309h-8.659v13.851zM74.351 26.894h-2.309V13.043h-8.656v-2.309h10.965v16.16zM74.351 75.095H63.386v-2.309h8.656v-9.423h2.309v11.732z"></path><path d="M66.271 19.807h-13.85v-2.308h13.85v2.308zM66.271 69.873H51.266v-2.309h15.005v2.309z"></path><g><path d="M79.482 6.595V5.244H41.438v.004h-.701v44.273h2.39V7.633h33.971v70.319H49.485C48.282 85.31 41.23 90.274 40.99 90.43a1.468 1.468 0 0 1-2.034-.436 1.47 1.47 0 0 1 .438-2.035c.053-.034 5.594-3.718 7.222-9.926.264-1.004.461-1.987.617-2.938h9.806v-2.309h-9.507c.396-4.167-.05-7.219-.055-7.261a1.487 1.487 0 0 1-.002-.365H64.23c3.434 0 6.867-2.067 6.867-6.131s-3.023-6.623-6.867-6.623H37.544v-7.253h-.034l-.008-9.912c-3.59 1.56-6.094 2.665-6.631 2.939-4.332 2.207-7.603 7.276-8.339 9.32-.899 2.042-21.093 52.322-21.093 52.322h41.858s10.14-4.251 15.534-10.138c1.81-1.976 4.263-6.014 5.649-9.352l15.001.018.004-73.756h-.003z"></path></g></g><!----></svg>