<svg data-v-423bf9ae="" xmlns="http://www.w3.org/2000/svg" viewBox="0 0 204.33333079020184 60" class="font"><!----><!----><!----><g data-v-423bf9ae="" id="1893afa9-721e-47e5-85c0-5f92dfaec93a" fill="black" transform="matrix(6.666666666666667,0,0,6.666666666666667,-5.600002566973373,-26.800000349680587)"><path d="M5.52 4.02L5.52 4.02L6.69 4.02L6.69 4.02Q7 4.02 7 4.30L7 4.30L7 10.74L7 10.74Q7 11.83 6.39 12.42L6.39 12.42L6.39 12.42Q5.78 13.02 4.69 13.02L4.69 13.02L3.15 13.02L3.15 13.02Q2.04 13.02 1.44 12.43L1.44 12.43L1.44 12.43Q0.84 11.84 0.84 10.74L0.84 10.74L0.84 4.31L0.84 4.31Q0.84 4.02 1.13 4.02L1.13 4.02L2.32 4.02L2.32 4.02Q2.62 4.02 2.62 4.31L2.62 4.31L2.62 10.65L2.62 10.65Q2.62 11.10 2.81 11.29L2.81 11.29L2.81 11.29Q3.00 11.48 3.43 11.48L3.43 11.48L4.40 11.48L4.40 11.48Q4.84 11.48 5.03 11.29L5.03 11.29L5.03 11.29Q5.22 11.10 5.22 10.65L5.22 10.65L5.22 4.31L5.22 4.31Q5.22 4.02 5.52 4.02ZM12.03 13.02L12.03 13.02L10.78 13.02L10.78 13.02Q9.67 13.02 9.07 12.43L9.07 12.43L9.07 12.43Q8.47 11.84 8.47 10.74L8.47 10.74L8.47 8.16L8.47 8.16Q8.47 7.06 9.07 6.47L9.07 6.47L9.07 6.47Q9.67 5.88 10.78 5.88L10.78 5.88L12.03 5.88L12.03 5.88Q13.12 5.88 13.73 6.47L13.73 6.47L13.73 6.47Q14.34 7.07 14.34 8.16L14.34 8.16L14.34 10.74L14.34 10.74Q14.34 11.83 13.73 12.42L13.73 12.42L13.73 12.42Q13.12 13.02 12.03 13.02ZM11.05 11.49L11.05 11.49L11.76 11.49L11.76 11.49Q12.21 11.49 12.40 11.31L12.40 11.31L12.40 11.31Q12.59 11.13 12.59 10.68L12.59 10.68L12.59 8.22L12.59 8.22Q12.59 7.77 12.40 7.59L12.40 7.59L12.40 7.59Q12.21 7.41 11.76 7.41L11.76 7.41L11.05 7.41L11.05 7.41Q10.60 7.41 10.42 7.59L10.42 7.59L10.42 7.59Q10.23 7.77 10.23 8.22L10.23 8.22L10.23 10.68L10.23 10.68Q10.23 11.13 10.42 11.31L10.42 11.31L10.42 11.31Q10.60 11.49 11.05 11.49ZM21.85 4.02L21.85 4.02L23.93 4.02L23.93 4.02Q24.22 4.02 24.22 4.31L24.22 4.31L24.22 12.73L24.22 12.73Q24.22 13.02 23.93 13.02L23.93 13.02L22.78 13.02L22.78 13.02Q22.48 13.02 22.48 12.73L22.48 12.73L22.48 6.09L22.43 6.09L21 10.78L21 10.78Q20.92 11.06 20.65 11.06L20.65 11.06L19.47 11.06L19.47 11.06Q19.21 11.06 19.12 10.78L19.12 10.78L17.67 6.08L17.61 6.08L17.61 12.73L17.61 12.73Q17.61 12.89 17.56 12.96L17.56 12.96L17.56 12.96Q17.50 13.02 17.32 13.02L17.32 13.02L16.17 13.02L16.17 13.02Q15.88 13.02 15.88 12.73L15.88 12.73L15.88 4.31L15.88 4.31Q15.88 4.02 16.17 4.02L16.17 4.02L18.26 4.02L18.26 4.02Q18.45 4.02 18.52 4.21L18.52 4.21L20.01 9.16L20.09 9.16L21.59 4.21L21.59 4.21Q21.63 4.02 21.85 4.02ZM31.16 13.02L31.16 13.02L28.07 13.02L28.07 13.02Q26.96 13.02 26.36 12.43L26.36 12.43L26.36 12.43Q25.76 11.84 25.76 10.74L25.76 10.74L25.76 8.16L25.76 8.16Q25.76 7.06 26.36 6.47L26.36 6.47L26.36 6.47Q26.96 5.88 28.07 5.88L28.07 5.88L29.18 5.88L29.18 5.88Q30.28 5.88 30.88 6.47L30.88 6.47L30.88 6.47Q31.49 7.06 31.49 8.16L31.49 8.16L31.49 9.94L31.49 9.94Q31.49 10.23 31.19 10.23L31.19 10.23L27.68 10.23L27.68 10.23Q27.51 10.23 27.51 10.39L27.51 10.39L27.51 10.70L27.51 10.70Q27.51 11.13 27.70 11.32L27.70 11.32L27.70 11.32Q27.89 11.51 28.34 11.51L28.34 11.51L31.16 11.51L31.16 11.51Q31.46 11.51 31.46 11.82L31.46 11.82L31.46 12.74L31.46 12.74Q31.46 12.89 31.40 12.96L31.40 12.96L31.40 12.96Q31.33 13.02 31.16 13.02ZM27.68 9.04L27.68 9.04L29.58 9.04L29.58 9.04Q29.74 9.04 29.74 8.89L29.74 8.89L29.74 8.22L29.74 8.22Q29.74 7.77 29.55 7.59L29.55 7.59L29.55 7.59Q29.37 7.41 28.92 7.41L28.92 7.41L28.34 7.41L28.34 7.41Q27.89 7.41 27.71 7.59L27.71 7.59L27.71 7.59Q27.52 7.77 27.52 8.22L27.52 8.22L27.52 8.89L27.52 8.89Q27.52 9.04 27.68 9.04Z"></path></g><!----><!----></svg>